<svg width="25" height="24" viewBox="0 0 25 24" fill="none" xmlns="http://www.w3.org/2000/svg">
<path d="M5.20831 15.75H2.95831C2.85886 15.75 2.76347 15.7895 2.69315 15.8598C2.62282 15.9302 2.58331 16.0255 2.58331 16.125C2.58331 16.2245 2.62282 16.3198 2.69315 16.3902C2.76347 16.4605 2.85886 16.5 2.95831 16.5H5.20831C5.30777 16.5 5.40315 16.4605 5.47348 16.3902C5.5438 16.3198 5.58331 16.2245 5.58331 16.125C5.58331 16.0255 5.5438 15.9302 5.47348 15.8598C5.40315 15.7895 5.30777 15.75 5.20831 15.75ZM4.45831 17.25H2.95831C2.85886 17.25 2.76347 17.2895 2.69315 17.3598C2.62282 17.4302 2.58331 17.5255 2.58331 17.625C2.58331 17.7245 2.62282 17.8198 2.69315 17.8902C2.76347 17.9605 2.85886 18 2.95831 18H4.45831C4.55777 18 4.65315 17.9605 4.72348 17.8902C4.7938 17.8198 4.83331 17.7245 4.83331 17.625C4.83331 17.5255 4.7938 17.4302 4.72348 17.3598C4.65315 17.2895 4.55777 17.25 4.45831 17.25Z" fill="black"/>
<path d="M21.7083 3.75H18.7083V3.375C18.708 3.07672 18.5894 2.79075 18.3785 2.57983C18.1676 2.36892 17.8816 2.2503 17.5833 2.25H13.8333C13.535 2.2503 13.2491 2.36892 13.0381 2.57983C12.8272 2.79075 12.7086 3.07672 12.7083 3.375V3.75H9.70831C9.21122 3.7506 8.73465 3.94833 8.38315 4.29983C8.03164 4.65133 7.83391 5.1279 7.83331 5.625V9H2.58331C2.18561 9.0004 1.80431 9.15856 1.52309 9.43978C1.24187 9.721 1.08371 10.1023 1.08331 10.5V18C1.08371 18.3977 1.24187 18.779 1.52309 19.0602C1.80431 19.3414 2.18561 19.4996 2.58331 19.5H7.83331C7.70956 20.6812 8.47606 21.7376 9.70831 21.75H21.7083C22.2054 21.7494 22.682 21.5517 23.0335 21.2002C23.385 20.8487 23.5827 20.3721 23.5833 19.875V5.625C23.5827 5.1279 23.385 4.65133 23.0335 4.29983C22.682 3.94833 22.2054 3.7506 21.7083 3.75ZM13.4583 3.375C13.4583 3.27554 13.4978 3.18016 13.5681 3.10984C13.6385 3.03951 13.7339 3 13.8333 3H17.5833C17.6828 3 17.7782 3.03951 17.8485 3.10984C17.9188 3.18016 17.9583 3.27554 17.9583 3.375V5.25C17.9583 5.34946 17.9188 5.44484 17.8485 5.51516C17.7782 5.58549 17.6828 5.625 17.5833 5.625H13.8333C13.7339 5.625 13.6385 5.58549 13.5681 5.51516C13.4978 5.44484 13.4583 5.34946 13.4583 5.25V3.375ZM13.0008 6C13.1054 6.11755 13.2336 6.21172 13.377 6.27634C13.5205 6.34096 13.676 6.37458 13.8333 6.375H17.5833C17.7407 6.37458 17.8961 6.34096 18.0396 6.27634C18.183 6.21172 18.3112 6.11755 18.4158 6H20.9583V19.5H10.4583V19.4468C10.7795 19.3641 11.0642 19.1772 11.2678 18.9154C11.4713 18.6536 11.5823 18.3316 11.5833 18V10.5C11.5823 10.1684 11.4713 9.8464 11.2678 9.5846C11.0642 9.32279 10.7795 9.13591 10.4583 9.05325V6H13.0008ZM8.58331 5.625C8.58361 5.32672 8.70223 5.04075 8.91315 4.82983C9.12406 4.61892 9.41004 4.5003 9.70831 4.5H12.7083V5.25H10.4583C10.2595 5.2503 10.0689 5.32941 9.92831 5.47C9.78772 5.61059 9.70861 5.80118 9.70831 6V9H8.58331V5.625ZM4.83331 9.75H7.83331V10.875C7.83331 10.9745 7.7938 11.0698 7.72348 11.1402C7.65315 11.2105 7.55777 11.25 7.45831 11.25H5.20831C5.10886 11.25 5.01347 11.2105 4.94315 11.1402C4.87282 11.0698 4.83331 10.9745 4.83331 10.875V9.75ZM2.58331 18.75C2.38449 18.7497 2.1939 18.6706 2.05331 18.53C1.91272 18.3894 1.83361 18.1988 1.83331 18V10.5C1.83361 10.3012 1.91272 10.1106 2.05331 9.97C2.1939 9.82941 2.38449 9.7503 2.58331 9.75H4.08331V10.875C4.08361 11.1733 4.20223 11.4593 4.41315 11.6702C4.62406 11.8811 4.91004 11.9997 5.20831 12H7.45831C7.75659 11.9997 8.04257 11.8811 8.25348 11.6702C8.46439 11.4593 8.58301 11.1733 8.58331 10.875V9.75H10.0833C10.2821 9.7503 10.4727 9.82941 10.6133 9.97C10.7539 10.1106 10.833 10.3012 10.8333 10.5V18C10.833 18.1988 10.7539 18.3894 10.6133 18.53C10.4727 18.6706 10.2821 18.7497 10.0833 18.75H2.58331ZM22.8333 19.875C22.833 20.1733 22.7144 20.4593 22.5035 20.6702C22.2926 20.8811 22.0066 20.9997 21.7083 21H9.70831C9.41004 20.9997 9.12406 20.8811 8.91315 20.6702C8.70223 20.4593 8.58361 20.1733 8.58331 19.875V19.5H9.70831C9.70861 19.6988 9.78772 19.8894 9.92831 20.03C10.0689 20.1706 10.2595 20.2497 10.4583 20.25H20.9583C21.1571 20.2497 21.3477 20.1706 21.4883 20.03C21.6289 19.8894 21.708 19.6988 21.7083 19.5V6C21.708 5.80118 21.6289 5.61059 21.4883 5.47C21.3477 5.32941 21.1571 5.2503 20.9583 5.25H18.7083V4.5H21.7083C22.0066 4.5003 22.2926 4.61892 22.5035 4.82983C22.7144 5.04075 22.833 5.32672 22.8333 5.625V19.875Z" fill="black"/>
<path d="M17.8807 10.3899C17.951 10.4602 18.0464 10.4997 18.1458 10.4997C18.2452 10.4997 18.3406 10.4602 18.4109 10.3899L20.0984 8.70241C20.1667 8.63169 20.2045 8.53696 20.2037 8.43864C20.2028 8.34031 20.1634 8.24626 20.0939 8.17673C20.0243 8.1072 19.9303 8.06776 19.832 8.06691C19.7336 8.06605 19.6389 8.10385 19.5682 8.17216L18.1458 9.59454L17.6609 9.10966C17.5902 9.04135 17.4955 9.00355 17.3972 9.00441C17.2988 9.00526 17.2048 9.0447 17.1353 9.11423C17.0657 9.18376 17.0263 9.27781 17.0254 9.37614C17.0246 9.47446 17.0624 9.56919 17.1307 9.63991L17.8807 10.3899ZM12.8958 10.1248H15.8958C15.9953 10.1248 16.0907 10.0853 16.161 10.015C16.2313 9.94463 16.2708 9.84924 16.2708 9.74979C16.2708 9.65033 16.2313 9.55495 16.161 9.48462C16.0907 9.4143 15.9953 9.37479 15.8958 9.37479H12.8958C12.7964 9.37479 12.701 9.4143 12.6306 9.48462C12.5603 9.55495 12.5208 9.65033 12.5208 9.74979C12.5208 9.84924 12.5603 9.94463 12.6306 10.015C12.701 10.0853 12.7964 10.1248 12.8958 10.1248ZM17.8807 13.7649C17.951 13.8352 18.0464 13.8747 18.1458 13.8747C18.2452 13.8747 18.3406 13.8352 18.4109 13.7649L20.0984 12.0774C20.1667 12.0067 20.2045 11.912 20.2037 11.8136C20.2028 11.7153 20.1634 11.6213 20.0939 11.5517C20.0243 11.4822 19.9303 11.4428 19.832 11.4419C19.7336 11.4411 19.6389 11.4789 19.5682 11.5472L18.1458 12.9695L17.6609 12.4847C17.5902 12.4164 17.4955 12.3786 17.3972 12.3794C17.2988 12.3803 17.2048 12.4197 17.1353 12.4892C17.0657 12.5588 17.0263 12.6528 17.0254 12.7511C17.0246 12.8495 17.0624 12.9442 17.1307 13.0149L17.8807 13.7649ZM12.8958 13.4998H15.8958C15.9953 13.4998 16.0907 13.4603 16.161 13.39C16.2313 13.3196 16.2708 13.2242 16.2708 13.1248C16.2708 13.0253 16.2313 12.9299 16.161 12.8596C16.0907 12.7893 15.9953 12.7498 15.8958 12.7498H12.8958C12.7964 12.7498 12.701 12.7893 12.6306 12.8596C12.5603 12.9299 12.5208 13.0253 12.5208 13.1248C12.5208 13.2242 12.5603 13.3196 12.6306 13.39C12.701 13.4603 12.7964 13.4998 12.8958 13.4998ZM17.8807 17.1399C17.951 17.2102 18.0464 17.2497 18.1458 17.2497C18.2452 17.2497 18.3406 17.2102 18.4109 17.1399L20.0984 15.4524C20.1667 15.3817 20.2045 15.287 20.2037 15.1886C20.2028 15.0903 20.1634 14.9963 20.0939 14.9267C20.0243 14.8572 19.9303 14.8178 19.832 14.8169C19.7336 14.8161 19.6389 14.8539 19.5682 14.9222L18.1458 16.3445L17.6609 15.8597C17.5902 15.7914 17.4955 15.7536 17.3972 15.7544C17.2988 15.7553 17.2048 15.7947 17.1353 15.8642C17.0657 15.9338 17.0263 16.0278 17.0254 16.1261C17.0246 16.2245 17.0624 16.3192 17.1307 16.3899L17.8807 17.1399ZM12.8958 16.8748H15.8958C15.9953 16.8748 16.0907 16.8353 16.161 16.765C16.2313 16.6946 16.2708 16.5992 16.2708 16.4998C16.2708 16.4003 16.2313 16.3049 16.161 16.2346C16.0907 16.1643 15.9953 16.1248 15.8958 16.1248H12.8958C12.7964 16.1248 12.701 16.1643 12.6306 16.2346C12.5603 16.3049 12.5208 16.4003 12.5208 16.4998C12.5208 16.5992 12.5603 16.6946 12.6306 16.765C12.701 16.8353 12.7964 16.8748 12.8958 16.8748Z" fill="black"/>
</svg>
